<svg xmlns="http://www.w3.org/2000/svg" xmlns:xlink="http://www.w3.org/1999/xlink" id="Layer_1" width="572.6" height="572.6" x="0" y="0" version="1.1" viewBox="0 0 572.6 572.6" xml:space="preserve">
  <g id="g1169" transform="translate(-156.5 -134.2)">
    <path id="path1171" fill="#2b3990" stroke="#fff" stroke-miterlimit="10" stroke-width="2" d="M436.6 249.4c.9 25.9-.9 51-9.3 75.9-7.7 22.8-22 41.7-36.8 60.2-10.8 13.6-22.4 26.5-34.6 40.9 33.9-12.5 68-16.8 98.3-36.9 22.7-15.1 30.2-40.6 27.1-66.2-.6-4.7-1.1-9.4-1.8-15.4-6.4 13.6-12.3 26-18.2 38.5-.7-.2-1.3-.5-2-.7-1.4-34.3-4.3-68.1-22.7-96.3z"/>
    <path id="path1173" fill="#1b75bc" stroke="#fff" stroke-miterlimit="10" stroke-width="2" d="M670.9 485.2c-7.5 4.7-76.9.9-85.6-.4-15-2.3-30-4.3-45-6.7-9.9-1.6-12.1-1.8-15.8-2.7-6.8-1.6-11.2-3.3-19.9-5.3 42.3-11.6 78.8-34.4 105.6-76.1-38.5 16.5-76.4 34.5-117.7 37.9 68.4-33.3 123.1-81.9 158-152.7 1.2-1.4 1.8-2.6 1.5-3-.3-.4-1.6 0-3 1.1-4 3.2-11.2 8.7-20.1 15.5-98 75.3-206.2 120.2-322.2 142.4-12.3 2.3-24.6 5.3-36.9 6.3-4.7.4-8.6 1.3-13.7 3.4-12.5 5.3-20.7 15.3-21.9 16.8-4.6 5.7-4.4 7.7-9 11.6-4 3.4-7 4.3-8.9 8.3-1.4 3-1.2 5.8-1.1 8.4.3 4.5 1.9 7.5 5.1 13.3 1.2 2.3 2.4 4.1 4.6 5.4 1.2.8 2.4 1.2 3.2 1.4-.6-.9-2.3-4.1-1.6-8.1.1-.8.5-2.6 1.9-4.4.9-1.2 1.9-2 2.7-2.6 2.9-2 7.2-3.7 9.7-3.9 15.2-1.6 29 2.7 42.5 7.4 20.6 7.1 41 14.9 60.9 23.7 7.4 3.3 13.6 9.8 19.4 15.8 4.4 4.5 5.8 10.7 1.4 17.2-3.7 5.5-19.6 19.9-24.9 17.9-2.5-.9-4.4-3.7-6-6-1.8-2.6-2.9-5.6-4.3-8.5-.2-.2-.4-.5-.6-1-.2-.3-.2-.5-.4-.5-.2-.1-.6 0-1.5 1-4.4 8-8.8 16-13.2 23.9-.1.1-.1.5-.1.8 0 .1.1.4.3.6.3.3.7.3.9.3.5 0 .9-.3 1.1-.4.3-.1.7-.3 1.1-.6l.4-.2c8.6-7.6 8.6-7.6 16.2.2 1.8 1.8 3.6 3.6 5.2 5.5 7.2 8.7 7.1 10.7-1.1 19.1 1.6 1.9 3.4 2.9 5.3 3.2 3.2.5 5.8-1.1 7.6-2.2 1.7-1 2.7-1.6 3.3-2.9 1-2 .2-4-.5-7.3-.5-2.1-1.1-5.3-1.5-9.4 10.9-4.9 27.2-19.1 37.4-23.8 4.2-2 5.8-4.3 6.3-4.9 2.4-2.8 2.5-4.5 4.3-6 3.4-2.8 8.4-1.2 10.4-.8 6 1.4 28.3 5.8 55.7-18.6 2.1-1.9 5.5-2.5 8.4-2.8 6.7-.6 13.5-.7 21.5-1-4-4.8-7.1-8.6-11.5-13.9 45.2 1.2 117.8 11.5 186.1-31.7z"/>
    <path id="path1175" fill="#fff" d="M238.2 474.4c5.8-5.5 10.7-10.1 16-15 .7 10.6-3.9 14.9-16 15z" class="st12"/>
  </g>
</svg>
