<svg xmlns="http://www.w3.org/2000/svg" xmlns:xlink="http://www.w3.org/1999/xlink" id="Layer_1" width="572.6" height="572.6" x="0" y="0" version="1.1" viewBox="0 0 572.6 572.6" xml:space="preserve">
  <g id="g719" transform="translate(-156.5 -134.2)">
    <defs id="defs721">
      <circle id="SVGID_17_" cx="442.8" cy="420.5" r="194"/>
    </defs>
    <use id="use724" width="100%" height="100%" x="0" y="0" fill="#fdd914" overflow="visible" xlink:href="#SVGID_17_"/>
    <clipPath id="SVGID_18_">
      <use id="use727" width="100%" height="100%" x="0" y="0" overflow="visible" xlink:href="#SVGID_17_"/>
    </clipPath>
    <g id="g729" clip-path="url(#SVGID_18_)">
      <polygon id="polygon731" fill="#fff" points="195.5 470 192.9 621.7 723.6 637.8 637.8 382.1 584.7 322.6 540.1 283.4 458.7 380.6 391 328.1 355.2 331.5 336 309.7" class="st12"/>
    </g>
  </g>
  <g id="g733" transform="translate(-156.5 -134.2)">
    <path id="path735" fill="#2b3990" d="M442.8 705.3c-76.1 0-147.6-29.6-201.4-83.4-53.8-53.8-83.4-125.3-83.4-201.4 0-76.1 29.6-147.6 83.4-201.4 53.8-53.8 125.3-83.4 201.4-83.4 76.1 0 147.6 29.6 201.4 83.4 53.8 53.8 83.4 125.3 83.4 201.4 0 76.1-29.6 147.6-83.4 201.4-53.8 53.8-125.3 83.4-201.4 83.4zm0-480.3c-107.8 0-195.5 87.7-195.5 195.5S335 616 442.8 616s195.5-87.7 195.5-195.5S550.6 225 442.8 225z"/>
    <path id="path737" fill="#fff" d="M442.8 137.2c38.2 0 75.3 7.5 110.3 22.3 33.7 14.3 64 34.7 90 60.7s46.4 56.3 60.7 90c14.8 34.9 22.3 72 22.3 110.3s-7.5 75.3-22.3 110.3a283.1 283.1 0 01-60.7 90c-26 26-56.3 46.4-90 60.7-34.9 14.8-72 22.3-110.3 22.3s-75.3-7.5-110.3-22.3a283.1 283.1 0 01-90-60.7c-26-26-46.4-56.3-60.7-90-14.8-34.9-22.3-72-22.3-110.3s7.5-75.3 22.3-110.3c14.3-33.7 34.7-64 60.7-90s56.3-46.4 90-60.7c35-14.8 72.1-22.3 110.3-22.3m0 480.4c26.6 0 52.4-5.2 76.7-15.5 23.5-9.9 44.5-24.1 62.6-42.2s32.3-39.2 42.2-62.6c10.3-24.3 15.5-50.1 15.5-76.7s-5.2-52.4-15.5-76.7c-9.9-23.5-24.1-44.5-42.2-62.6a194.04 194.04 0 00-62.6-42.3 195.41 195.41 0 00-76.7-15.5c-26.6 0-52.4 5.2-76.7 15.5-23.5 9.9-44.5 24.1-62.6 42.2a196.45 196.45 0 00-42.2 62.6 195.41 195.41 0 00-15.5 76.7c0 26.6 5.2 52.4 15.5 76.7 9.9 23.5 24.1 44.5 42.2 62.6s39.2 32.3 62.6 42.2a195.5 195.5 0 0076.7 15.6m0-483.4c-158.1 0-286.3 128.2-286.3 286.3 0 158.1 128.2 286.3 286.3 286.3 158.1 0 286.3-128.2 286.3-286.3 0-158.1-128.2-286.3-286.3-286.3zm0 480.4c-107.2 0-194-86.9-194-194 0-107.2 86.9-194 194-194 107.2 0 194 86.9 194 194s-86.8 194-194 194z" class="st12"/>
  </g>
  <g id="g739" transform="translate(-156.5 -134.2)">
    <path id="path741" fill="#fff" d="M185.2 423l14.6.5.3-10.7 7.3.2-.3 10.7 21.9.7-.2 7.2-51-1.6.7-21.5 7.3.2-.6 14.3z" class="st12"/>
    <path id="path743" fill="#fff" d="M230.4 400.1l-6.6 4.7-39-6.3-4.8-6.5 2.2-13.5 6.6-4.7 39 6.3 4.8 6.5-2.2 13.5zm-5.5-11.8l-1.3-1.7-33-5.3-1.7 1.2-1.2 7.7 1.3 1.7 33 5.3 1.7-1.2 1.2-7.7z" class="st12"/>
    <path id="path745" fill="#fff" d="M241.5 352.7l-1.8 5.7-31.4 2.9 27.9 8.5-2.1 6.9-48.8-15 1.8-5.7 31.4-2.9-27.9-8.5 2.1-6.9 48.8 15z" class="st12"/>
    <path id="path747" fill="#fff" d="M213.2 308.2l-3.6 7.8 39.8 18.2-3 6.5-39.8-18.2-3.6 7.8-6.6-3 10.1-22.2 6.7 3.1z" class="st12"/>
    <path id="path749" fill="#fff" d="M229.1 278.4l38.3 24.1-3.8 6.1-15.4-9.7-5.7 9.1 15.4 9.7-3.8 6.1-38.3-24.1-1.9-7.9 7.3-11.6 7.9-1.8zM242 295l-14.2-8.9-2.1.5-4.1 6.6.5 2.1 14.2 8.9 5.7-9.2z" class="st12"/>
    <path id="path751" fill="#fff" d="M270.3 298.8l-40.4-31.2 4.4-5.7 40.4 31.2-4.4 5.7z" class="st12"/>
    <path id="path753" fill="#fff" d="M294.5 270.9l-4.1 4.3-29.4-11.3 21.2 20-4.9 5.2-37.1-35 4.1-4.3 29.4 11.3-21.2-20 4.9-5.2 37.1 35z" class="st12"/>
    <path id="path755" fill="#fff" d="M275.4 229.4l9.2 11.3 8.3-6.8 4.6 5.6-8.3 6.8 9.2 11.3 11.1-9.1 4.6 5.6-16.7 13.6-32.3-39.5 16.7-13.6 4.6 5.6-11 9.2z" class="st12"/>
    <path id="path757" fill="#fff" d="M332.1 192.4l-7.6 4 20.4 38.7-6.3 3.3-20.4-38.7-7.6 4-3.4-6.5 21.6-11.4 3.3 6.6z" class="st12"/>
    <path id="path759" fill="#fff" d="M362.8 178.6l15.7 42.4-6.7 2.5-6.3-17.1-10.1 3.7 6.3 17.1-6.7 2.5-15.7-42.4 3.3-7.4 12.9-4.8 7.3 3.5zm.1 21l-5.8-15.7-1.9-.9-7.3 2.7-.9 1.9 5.8 15.7 10.1-3.7z" class="st12"/>
    <path id="path761" fill="#fff" d="M379.8 175.4l3.3 14.2 10.5-2.4 1.6 7.1-10.5 2.4 3.3 14.2 14-3.2 1.6 7.1-21 4.8-11.4-49.8 21-4.8 1.6 7.1-14 3.3z" class="st12"/>
    <path id="path763" fill="#fff" d="M434.5 211.2l-7.7.7-9.3-21.1-4.6.4 2 21.8-7.3.7-4.7-50.8 7.3-.7 2 21.8 4.6-.4 5.3-22.5 7.7-.7-6.1 26.2 10.8 24.6z" class="st12"/>
    <path id="path765" fill="#fff" d="M483.4 162.7L471.6 213l-6-.5-5.5-32.9-10.6 31.6-6-.5-3.8-51.5 7.4.6 2.1 29.2 9.5-28.3 5.7.5 4.9 29.4 6.7-28.5 7.4.6z" class="st12"/>
    <path id="path767" fill="#fff" d="M485.9 215.6l-4.1-7 9.6-38.3 6.9-4.2 13.3 3.3 4.1 7-9.6 38.3-6.9 4.2-13.3-3.3zm12.3-4.5l1.8-1.1 8.1-32.4-1.1-1.8-7.5-1.9-1.8 1.1-8.1 32.4 1.1 1.8 7.5 1.9z" class="st12"/>
    <path id="path769" fill="#fff" d="M532.2 230.7l-5.5-2.2-.2-31.5-10.9 27-6.7-2.7 19-47.4 5.5 2.2.2 31.5 10.9-27.1 6.7 2.7-19 47.5z" class="st12"/>
    <path id="path771" fill="#fff" d="M566 215.6l-3.5 6.4-15.7-8.6 3.5-6.4 15.7 8.6z" class="st12"/>
    <path id="path773" fill="#fff" d="M556 243.2l29.8-41.4 15.8 11.3 1.2 8-23.1 32-8 1.4-15.7-11.3zm17.6 3.6l2.1-.4 19.5-27.1-.3-2.1-7.5-5.4-21.3 29.6 7.5 5.4z" class="st12"/>
    <path id="path775" fill="#fff" d="M583.9 264.2l-.1-8.1 27.2-28.6 8.1-.3 9.9 9.5.1 8.1-27.2 28.6-8.1.3-9.9-9.5zm12.8 2.1l2.1-.1 23.1-24.2v-2.1l-5.6-5.4-2.1.1-23.1 24.2v2.1l5.6 5.4z" class="st12"/>
  </g>
  <g id="g1169" transform="translate(-156.5 -134.2)">
    <path id="path1171" fill="#2b3990" stroke="#fff" stroke-miterlimit="10" stroke-width="2" d="M436.6 249.4c.9 25.9-.9 51-9.3 75.9-7.7 22.8-22 41.7-36.8 60.2-10.8 13.6-22.4 26.5-34.6 40.9 33.9-12.5 68-16.8 98.3-36.9 22.7-15.1 30.2-40.6 27.1-66.2-.6-4.7-1.1-9.4-1.8-15.4-6.4 13.6-12.3 26-18.2 38.5-.7-.2-1.3-.5-2-.7-1.4-34.3-4.3-68.1-22.7-96.3z"/>
    <path id="path1173" fill="#1b75bc" stroke="#fff" stroke-miterlimit="10" stroke-width="2" d="M670.9 485.2c-7.5 4.7-76.9.9-85.6-.4-15-2.3-30-4.3-45-6.7-9.9-1.6-12.1-1.8-15.8-2.7-6.8-1.6-11.2-3.3-19.9-5.3 42.3-11.6 78.8-34.4 105.6-76.1-38.5 16.5-76.4 34.5-117.7 37.9 68.4-33.3 123.1-81.9 158-152.7 1.2-1.4 1.8-2.6 1.5-3-.3-.4-1.6 0-3 1.1-4 3.2-11.2 8.7-20.1 15.5-98 75.3-206.2 120.2-322.2 142.4-12.3 2.3-24.6 5.3-36.9 6.3-4.7.4-8.6 1.3-13.7 3.4-12.5 5.3-20.7 15.3-21.9 16.8-4.6 5.7-4.4 7.7-9 11.6-4 3.4-7 4.3-8.9 8.3-1.4 3-1.2 5.8-1.1 8.4.3 4.5 1.9 7.5 5.1 13.3 1.2 2.3 2.4 4.1 4.6 5.4 1.2.8 2.4 1.2 3.2 1.4-.6-.9-2.3-4.1-1.6-8.1.1-.8.5-2.6 1.9-4.4.9-1.2 1.9-2 2.7-2.6 2.9-2 7.2-3.7 9.7-3.9 15.2-1.6 29 2.7 42.5 7.4 20.6 7.1 41 14.9 60.9 23.7 7.4 3.3 13.6 9.8 19.4 15.8 4.4 4.5 5.8 10.7 1.4 17.2-3.7 5.5-19.6 19.9-24.9 17.9-2.5-.9-4.4-3.7-6-6-1.8-2.6-2.9-5.6-4.3-8.5-.2-.2-.4-.5-.6-1-.2-.3-.2-.5-.4-.5-.2-.1-.6 0-1.5 1-4.4 8-8.8 16-13.2 23.9-.1.1-.1.5-.1.8 0 .1.1.4.3.6.3.3.7.3.9.3.5 0 .9-.3 1.1-.4.3-.1.7-.3 1.1-.6l.4-.2c8.6-7.6 8.6-7.6 16.2.2 1.8 1.8 3.6 3.6 5.2 5.5 7.2 8.7 7.1 10.7-1.1 19.1 1.6 1.9 3.4 2.9 5.3 3.2 3.2.5 5.8-1.1 7.6-2.2 1.7-1 2.7-1.6 3.3-2.9 1-2 .2-4-.5-7.3-.5-2.1-1.1-5.3-1.5-9.4 10.9-4.9 27.2-19.1 37.4-23.8 4.2-2 5.8-4.3 6.3-4.9 2.4-2.8 2.5-4.5 4.3-6 3.4-2.8 8.4-1.2 10.4-.8 6 1.4 28.3 5.8 55.7-18.6 2.1-1.9 5.5-2.5 8.4-2.8 6.7-.6 13.5-.7 21.5-1-4-4.8-7.1-8.6-11.5-13.9 45.2 1.2 117.8 11.5 186.1-31.7z"/>
    <path id="path1175" fill="#fff" d="M238.2 474.4c5.8-5.5 10.7-10.1 16-15 .7 10.6-3.9 14.9-16 15z" class="st12"/>
  </g>
  <g id="g1293" transform="translate(-156.5 -134.2)">
    <g id="g1295">
      <g id="g1297">
        <path id="path1299" fill="#fff" d="M609.4 626.7c-2.3-.9-4.7-1.1-6.7 1.1-1.7 1.8-3.6 3.3-5.8 4.5-2.1 2.1-4.8 3.1-7.5 4.2-1.3.5-1.7-.1-1.8-1.3-.5-3.3-1-6.6-.8-10 .2-2.5-.7-4.3-2.7-5.7-2.2-1.6-2.1-2.6.2-4.3l3.9-3c1.3-3.8-.5-6.2-4.5-6.1-3.8.1-6.7 1.5-8.1 5.2-.2.6-.7 1.2-1.1 1.7-.7 1.9-2.7 2.6-4 3.9-.8.8-1.6.1-2.1-.7-1.9-3.7-3.4-7.6-4.6-11.7-.2-.8 0-1.6.6-2.1 3.3-2.8 6.1-6.1 8.9-9.4.5-.6 1.5-.9 2.2-1.3.9-1.9.3-3.3-1.5-4.3-2.3-1.3-6.8-1.3-7.9.3-2.7 4.2-6.8 7.1-10.4 10.6-1.4 1.3-3.2 2.5-3.4 4.7 3.8 4.6 5.9 10.1 8.5 15.4.9 1.8 1.6 3.8 2.4 5.7 1.9 4.1 7 4.7 10.9 1.3.7-.6 1.4-1.8 2.6-1.2 1.1.6 1.8 1.5 1.8 2.9-.1 3.7 1.4 7.2 1 11 .5 3.1-1.2 5-3.5 6.6-2.5 1.7-5 3.5-7.3 5.4-2.9 2.5-2.8 2.6.1 4.7.5.3 1 .7 1.4 1 3.1 1.3 5 .3 7.3-2.2 7.2-8.2 16.1-13.9 26.9-16.6 2.4-.6 4.8-1.5 7.2-2.2a5 5 0 003.1-2.6c.1-3.6-2.7-4.5-5.3-5.5z" class="st12"/>
        <path id="path1301" fill="#fff" d="M461.5 623.4c-2.3-.7-3.8.4-3.7 2.7 0 1 0 2-.1 3.1.3 3.6.1 7.1-1.6 10.4-.3.6-.2 1.1-.2 1.7-.1 1.1-.1 2.4-.7 3.2-.7 1-1 3.2-3 2.4-2-.8-.6-2.3-.3-3.5.7-2.4 1.8-4.9-.1-7.3-2.3-1.5-4.4-3.4-7.5-2.6-.1.8-.3 1.5-.4 2.3v2c-.2 8.1-1.3 16.2-2.5 24.2-.3 2.1-.4 4.1 0 6.1.2.8.3 1.6 1.4 1.9 2.7.6 5.3-1.1 5.4-3.8.1-1.5.1-2.9 0-4.4-.1-2.6.4-5.1 1.6-7.5.9-1.8 2.7-1.6 4.3-1.6.8 0 1.2.6 1.1 1.4-.3 5.7-.3 11.6-2 17.1-1.8 5.7-1.9 11.5-2.5 17.3-.2 2.3 2.7 4.3 5.6 4.1 2.6-.2 2.3-2.3 2.1-3.9-.4-3.4.1-6.7.4-10 1-8.8 2.4-17.6 3.6-26.5.9-7.1 1.8-14.3 4.3-21.1.5-3.5-1.6-6.6-5.2-7.7z" class="st12"/>
        <path id="path1303" fill="#fff" d="M440.9 647.6c-3.1-3.7-4.9-4.2-9.6-2.8-3.9 1.1-7.5 3.2-11.7 3.4-1.7.6-2.5 1.7-2.4 3.6.1 1.6 0 3.4-.8 4.9-.4 2.5-.9 4.9-1 7.4-.2 3.6 2.1 6.5 5.4 6.3 5.7-.2 11.3-1.1 16.5-3.5 2.2-1 1.9-3.3 1.3-5-.5-1.7-2.1-1.8-3.9-1.1-2.9 1.2-6 .6-9 1.1-.5.1-.8-.1-1.1-.5-1.5-2.1-.2-5.7 2.4-6.3 4.5-1 8.7-3 13.1-4.5 1.6-.5 2-1.5.8-3z" class="st12"/>
        <path id="path1305" fill="#fff" d="M419.9 639.4a6 6 0 004.3 2.5c6.3.6 11.6-2.1 16.8-5.1-.1-5.4-4.9-8.4-9.9-6.2-.9.4-1.7.8-2.5 1.3-2.1 1.2-4.3 1.6-6.7 1.4-1.2-.1-2.8-.7-3.6.6-.9 1.4-.1 2.8.7 4 .2.4.5.9.9 1.5z" class="st12"/>
        <path id="path1307" fill="#fff" d="M443.9 635.7c.1-.8.3-1.5.4-2.3-1 .6-.7 1.5-.4 2.3z" class="st12"/>
        <path id="path1309" fill="#fff" d="M512.7 639.2c2-.6 4.1-1 6.1-1.5 1.7-.4 2.9-1.4 3.9-2.8 1.4-2 .8-3.7-1.7-4.1-1.5-.2-3.1-.1-4.7 0-1.5.1-2.4-.3-2.4-1.9-.2-2.7-.3-5.4-.5-8.2-.4-1.9-.8-3.8-2.9-4.6-2.6-1-5.3-1.4-7.8 0-2.4 1.3-4.9 2.7-7.1 4.3-1.4 1.1-4.1 1.4-3.8 3.7.3 2.6 3.2 1.8 4.8 2.7 4.4.4 5 1.2 4.1 5.6-.3 1.2-.5 2.5-1.5 3.4-1.4 2.4-3.3 4.2-5.4 6-3.6 2.9-7.9 4.9-11.5 7.8-1.1.9-1.1 1.6-.5 2.5.9 1.4 2.1 2.5 4 2 4.7-.6 7.7-4.1 11.2-6.6 1.5-1 3.1-2.9 4.7-2.1 1.5.8 0 2.9-.3 4.5-.6 4-2.1 7.7-4.9 10.7.6 1.9.1 4.1 1.4 5.9 5 3 6.9 2 7.2-3.9.1-1.2.5-2.2 1-3.2 1.6-3.5 3.4-7 4.1-10.8.3-1.9.6-3.8 0-5.6-.9-2.2.5-3.2 2.5-3.8z" class="st12"/>
        <path id="path1311" fill="#fff" d="M530.2 644.7c1.1 4.1 3.6 8.3-.7 12.2-1.4 2.4-4 3.6-6.1 6.2 2.2-.9 3.8-1.6 5.4-2.3 1.6-1.6 3.6-1.4 5.6-1.5 4.6-.2 5.8-1.8 5-6.3-2-10.5-4.2-20.9-4.9-31.5-.2-2.5-.9-4.9-1.4-7.3-1.2-2.9-3.8-3.7-6.4-4.7-2.7-1.1-4.9-.7-6 1.1-1.3 2.1.2 3.6 1.4 5 .1.1.4.2.4.3 1.4 6.5 3.8 12.7 4.9 19.2.3 1.8-.3 2.6-1.9 3.4-4.3 2.3-7.8 5.6-11.7 8.5-.3.2-.9.5-.5 1 .2.3.7.5 1.1.6 1.9.2 3.7.1 5.4-.8 2.5-1.3 5.1-2.6 7.6-4.1 1.4-.8 2.3-.6 2.8 1z" class="st12"/>
        <path id="path1313" fill="#fff" d="M542.1 662.4c-3.4.5-6.3 2.3-9.4 3.8-.9.4-1.9.9-3 .8l-2.1.3c-.3.2-.6.1-.8-.1-1.7 0-3.4-.4-4.3-1.9-.9-1.5-1.3-.5-1.8.1-1.4 1.6-.6 3.4-.3 5.2 2.3 4 5.9 5.8 10.8 4.9 3.2-.6 6.3-1.4 9.4-2.3 2.9-.8 5.1-2.5 5.9-5.5-.3-4.5-.5-4.8-4.4-5.3z" class="st12"/>
        <path id="path1315" fill="#fff" d="M527.6 667.3c-.3 0-.5-.1-.8-.1.3.2.5.3.8.1z" class="st12"/>
      </g>
    </g>
  </g>
</svg>
